<?xml version="1.0" encoding="utf-8"?>
<!-- Generator: Adobe Illustrator 21.1.0, SVG Export Plug-In . SVG Version: 6.00 Build 0)  -->
<svg version="1.1" id="Layer_1" xmlns="http://www.w3.org/2000/svg" xmlns:xlink="http://www.w3.org/1999/xlink" x="0px" y="0px"
	 viewBox="0 0 120 120" style="enable-background:new 0 0 120 120;" xml:space="preserve">
<style type="text/css">
	.st0{fill:#FFDE50;}
	.st1{fill:#F68E00;}
	.st2{fill:#FAA300;}
	.st3{opacity:0.14;fill:#FFFFFF;enable-background:new    ;}
	.st4{fill:#B96B00;}
	.st5{font-family:'Roboto-Bold';}
	.st6{font-size:21.0729px;}
	.st7{enable-background:new    ;}
	.st8{fill:#FFEA94;}
</style>
<title>heads</title>
<g>
	<path class="st0" d="M114.6,60c0,30.2-24.5,54.6-54.6,54.6c-19.6,0-37.6-10.5-47.4-27.5c-2.8-4.9-4.8-10.1-6-15.6
		C5.8,67.7,5.4,63.9,5.4,60c0-30.2,24.5-54.6,54.7-54.6C64.5,5.4,69,6,73.3,7c5.4,1.4,10.6,3.5,15.4,6.5
		C104.8,23.5,114.6,41.1,114.6,60z"/>
	<path class="st1" d="M105,60c0,24-18.8,43.7-42.7,44.9h0c-0.8,0-1.5,0.1-2.3,0.1c-24.9,0-45-20.1-45-45c0-21.9,15.7-40.6,37.3-44.3
		h0c24.5-4.2,47.8,12.2,52,36.6C104.8,54.8,105,57.4,105,60z"/>
	<path class="st2" d="M99.6,60.6c0,21.9-15.7,40.6-37.3,44.3h0c-0.8,0-1.5,0.1-2.3,0.1c-24.9,0-45-20.1-45-45
		c0-21.9,15.7-40.6,37.3-44.3h0c0.8,0,1.5-0.1,2.3-0.1C79.4,15.6,99.6,35.7,99.6,60.6C99.6,60.6,99.6,60.6,99.6,60.6z"/>
	<path class="st3" d="M99.8,22.6L93,29.4l-3.1,3.1L29.4,93l-6.8,6.8c-3.4-3.4-6.4-7.3-8.8-11.5C11,83.4,9,78.2,7.8,72.7
		C7,68.9,6.6,65.1,6.6,61.2C6.6,31,31.1,6.6,61.3,6.6c4.5,0,8.9,0.6,13.2,1.6c5.4,1.4,10.6,3.5,15.4,6.5
		C93.5,17,96.8,19.6,99.8,22.6z"/>
	<g>
		<text transform="matrix(1 0 0 1 27.8262 67.9588)" class="st4 st5 st6">High</text>
		<g class="st7">
		</g>
		<text transform="matrix(1 0 0 1 29.0264 69.159)" class="st8 st5 st6">High</text>
	</g>
</g>
</svg>
